<mxfile host="app.diagrams.net" agent="Mozilla/5.0 (Windows NT 10.0; Win64; x64) AppleWebKit/537.36 (KHTML, like Gecko) Chrome/135.0.0.0 Safari/537.36 Edg/135.0.0.0" version="26.2.13">
  <diagram name="Page-1" id="ytG4AgFj-T4alwaOmcg6">
    <mxGraphModel dx="338" dy="190" grid="1" gridSize="10" guides="1" tooltips="1" connect="1" arrows="1" fold="1" page="1" pageScale="1" pageWidth="850" pageHeight="1100" math="0" shadow="0">
      <root>
        <mxCell id="0" />
        <mxCell id="1" parent="0" />
        <mxCell id="bMvYO2MA1TzW89IXiLI0-2" value="" style="endArrow=none;html=1;rounded=0;entryX=0.185;entryY=0.999;entryDx=0;entryDy=0;entryPerimeter=0;exitX=0.186;exitY=-0.002;exitDx=0;exitDy=0;exitPerimeter=0;fillColor=#fad7ac;strokeColor=#b46504;" parent="1" edge="1">
          <mxGeometry width="50" height="50" relative="1" as="geometry">
            <mxPoint x="388.32" y="402.90600000000006" as="sourcePoint" />
            <mxPoint x="388.32" y="382.947" as="targetPoint" />
          </mxGeometry>
        </mxCell>
        <mxCell id="BWbdEm4UrA8oamrmkrrZ-38" value="" style="endArrow=classicThin;html=1;rounded=0;endFill=1;strokeWidth=0.5;fillColor=#008a00;strokeColor=#005700;entryX=1.002;entryY=0.56;entryDx=0;entryDy=0;entryPerimeter=0;exitX=0.639;exitY=0.241;exitDx=0;exitDy=0;exitPerimeter=0;" parent="1" edge="1">
          <mxGeometry width="50" height="50" relative="1" as="geometry">
            <mxPoint x="344" y="426.75" as="sourcePoint" />
            <mxPoint x="275" y="426.75" as="targetPoint" />
          </mxGeometry>
        </mxCell>
        <mxCell id="BWbdEm4UrA8oamrmkrrZ-39" value="" style="endArrow=classicThin;html=1;rounded=0;endFill=1;strokeWidth=0.5;fillColor=#008a00;strokeColor=#005700;entryX=1.002;entryY=0.56;entryDx=0;entryDy=0;entryPerimeter=0;exitX=0.639;exitY=0.241;exitDx=0;exitDy=0;exitPerimeter=0;" parent="1" edge="1">
          <mxGeometry width="50" height="50" relative="1" as="geometry">
            <mxPoint x="344" y="425.25" as="sourcePoint" />
            <mxPoint x="275" y="425.25" as="targetPoint" />
          </mxGeometry>
        </mxCell>
        <mxCell id="BWbdEm4UrA8oamrmkrrZ-40" value="" style="endArrow=classicThin;html=1;rounded=0;endFill=1;strokeWidth=0.5;fillColor=#008a00;strokeColor=#005700;entryX=1.002;entryY=0.56;entryDx=0;entryDy=0;entryPerimeter=0;exitX=0.639;exitY=0.241;exitDx=0;exitDy=0;exitPerimeter=0;" parent="1" edge="1">
          <mxGeometry width="50" height="50" relative="1" as="geometry">
            <mxPoint x="344" y="426" as="sourcePoint" />
            <mxPoint x="275" y="426" as="targetPoint" />
          </mxGeometry>
        </mxCell>
        <mxCell id="BWbdEm4UrA8oamrmkrrZ-33" style="edgeStyle=orthogonalEdgeStyle;rounded=0;orthogonalLoop=1;jettySize=auto;html=1;exitX=0.981;exitY=0.799;exitDx=0;exitDy=0;entryX=0.002;entryY=0.79;entryDx=0;entryDy=0;entryPerimeter=0;endArrow=classicThin;endFill=1;strokeWidth=0.5;fillColor=#1ba1e2;strokeColor=#006EAF;fontSize=5;exitPerimeter=0;" parent="1" source="BWbdEm4UrA8oamrmkrrZ-36" target="oa4Kjj4fSGmlapfvCtzm-1" edge="1">
          <mxGeometry relative="1" as="geometry">
            <mxPoint x="275.65000000000003" y="439.94100000000003" as="sourcePoint" />
            <mxPoint x="314.53999999999985" y="448.21299999999997" as="targetPoint" />
          </mxGeometry>
        </mxCell>
        <mxCell id="BWbdEm4UrA8oamrmkrrZ-35" value="Motor Telemetry" style="edgeLabel;html=1;align=center;verticalAlign=middle;resizable=0;points=[];fontSize=4;" parent="BWbdEm4UrA8oamrmkrrZ-33" vertex="1" connectable="0">
          <mxGeometry x="0.0663" y="1" relative="1" as="geometry">
            <mxPoint x="-5" y="1" as="offset" />
          </mxGeometry>
        </mxCell>
        <mxCell id="BWbdEm4UrA8oamrmkrrZ-17" value="" style="endArrow=classicThin;html=1;rounded=0;fillColor=#a20025;strokeColor=light-dark(#6F0000, #ff0000);endFill=1;strokeWidth=0.5;fontStyle=0" parent="1" edge="1">
          <mxGeometry width="50" height="50" relative="1" as="geometry">
            <mxPoint x="239.9" y="451" as="sourcePoint" />
            <mxPoint x="239.9" y="460" as="targetPoint" />
          </mxGeometry>
        </mxCell>
        <mxCell id="BWbdEm4UrA8oamrmkrrZ-14" value="" style="endArrow=classicThin;html=1;rounded=0;endFill=1;strokeWidth=0.5;fillColor=#008a00;strokeColor=#005700;entryX=1.002;entryY=0.56;entryDx=0;entryDy=0;entryPerimeter=0;exitX=0.639;exitY=0.241;exitDx=0;exitDy=0;exitPerimeter=0;" parent="1" edge="1">
          <mxGeometry width="50" height="50" relative="1" as="geometry">
            <mxPoint x="344" y="424.5" as="sourcePoint" />
            <mxPoint x="275" y="424.5" as="targetPoint" />
          </mxGeometry>
        </mxCell>
        <mxCell id="JxfRfJocXZYldZ37d1hh-59" style="edgeStyle=orthogonalEdgeStyle;rounded=0;orthogonalLoop=1;jettySize=auto;html=1;exitX=0.643;exitY=1.045;exitDx=0;exitDy=0;entryX=0.5;entryY=0;entryDx=0;entryDy=0;fillColor=#a20025;strokeColor=light-dark(#6F0000, #ff0000);exitPerimeter=0;" parent="1" target="K37k-eg5Op9D9jUx-g8K-3" edge="1">
          <mxGeometry relative="1" as="geometry">
            <mxPoint x="252.86999999999998" y="383.45000000000005" as="sourcePoint" />
            <mxPoint x="301.1499999999999" y="403" as="targetPoint" />
            <Array as="points">
              <mxPoint x="253" y="390" />
              <mxPoint x="298" y="390" />
            </Array>
          </mxGeometry>
        </mxCell>
        <mxCell id="JxfRfJocXZYldZ37d1hh-21" style="edgeStyle=orthogonalEdgeStyle;rounded=0;orthogonalLoop=1;jettySize=auto;html=1;fillColor=#a20025;strokeColor=light-dark(#6F0000, #ff0000);exitX=1;exitY=0.5;exitDx=0;exitDy=0;entryX=0.878;entryY=0.284;entryDx=0;entryDy=0;entryPerimeter=0;fontSize=11;" parent="1" source="K37k-eg5Op9D9jUx-g8K-3" edge="1">
          <mxGeometry relative="1" as="geometry">
            <mxPoint x="305" y="410.5" as="sourcePoint" />
            <mxPoint x="344.27200000000016" y="411.32000000000005" as="targetPoint" />
            <Array as="points">
              <mxPoint x="330" y="412" />
            </Array>
          </mxGeometry>
        </mxCell>
        <mxCell id="BWbdEm4UrA8oamrmkrrZ-9" value="&lt;font style=&quot;font-size: 5px;&quot;&gt;5.2V&lt;/font&gt;" style="edgeLabel;html=1;align=center;verticalAlign=middle;resizable=0;points=[];" parent="JxfRfJocXZYldZ37d1hh-21" vertex="1" connectable="0">
          <mxGeometry x="-0.2149" relative="1" as="geometry">
            <mxPoint x="-1" y="-2" as="offset" />
          </mxGeometry>
        </mxCell>
        <mxCell id="JxfRfJocXZYldZ37d1hh-27" style="edgeStyle=orthogonalEdgeStyle;rounded=0;orthogonalLoop=1;jettySize=auto;html=1;exitX=1;exitY=0.5;exitDx=0;exitDy=0;entryX=-0.002;entryY=0.711;entryDx=0;entryDy=0;entryPerimeter=0;strokeWidth=1;endArrow=classicThin;endFill=1;fillColor=#a20025;strokeColor=light-dark(#6F0000, #ff0000);" parent="1" source="JxfRfJocXZYldZ37d1hh-25" edge="1">
          <mxGeometry relative="1" as="geometry">
            <mxPoint x="343.7600000000001" y="378.65999999999997" as="targetPoint" />
          </mxGeometry>
        </mxCell>
        <mxCell id="BWbdEm4UrA8oamrmkrrZ-10" value="5V/5A" style="edgeLabel;html=1;align=center;verticalAlign=middle;resizable=0;points=[];fontSize=5;" parent="JxfRfJocXZYldZ37d1hh-27" vertex="1" connectable="0">
          <mxGeometry x="-0.2882" relative="1" as="geometry">
            <mxPoint as="offset" />
          </mxGeometry>
        </mxCell>
        <mxCell id="JxfRfJocXZYldZ37d1hh-9" value="" style="endArrow=classic;html=1;rounded=0;fillColor=#a20025;strokeColor=light-dark(#6F0000, #ff0000);exitX=0.181;exitY=1.01;exitDx=0;exitDy=0;entryX=0.25;entryY=0;entryDx=0;entryDy=0;exitPerimeter=0;" parent="1" edge="1">
          <mxGeometry width="50" height="50" relative="1" as="geometry">
            <mxPoint x="234.24" y="383.1" as="sourcePoint" />
            <mxPoint x="234.50000000000006" y="403" as="targetPoint" />
          </mxGeometry>
        </mxCell>
        <mxCell id="K37k-eg5Op9D9jUx-g8K-90" style="edgeStyle=orthogonalEdgeStyle;rounded=0;orthogonalLoop=1;jettySize=auto;html=1;exitX=1.003;exitY=0.352;exitDx=0;exitDy=0;fillColor=#1ba1e2;strokeColor=#006EAF;entryX=0;entryY=0.5;entryDx=0;entryDy=0;exitPerimeter=0;endArrow=classicThin;endFill=1;" parent="1" target="K37k-eg5Op9D9jUx-g8K-18" edge="1">
          <mxGeometry relative="1" as="geometry">
            <mxPoint x="464.36" y="342.11999999999995" as="sourcePoint" />
            <mxPoint x="482.65" y="342.04" as="targetPoint" />
          </mxGeometry>
        </mxCell>
        <mxCell id="JxfRfJocXZYldZ37d1hh-68" value="Image" style="edgeLabel;html=1;align=center;verticalAlign=middle;resizable=0;points=[];fontSize=5;" parent="K37k-eg5Op9D9jUx-g8K-90" vertex="1" connectable="0">
          <mxGeometry x="0.1602" relative="1" as="geometry">
            <mxPoint x="-7" as="offset" />
          </mxGeometry>
        </mxCell>
        <mxCell id="K37k-eg5Op9D9jUx-g8K-118" value="" style="endArrow=classic;html=1;rounded=0;entryX=1.001;entryY=0.824;entryDx=0;entryDy=0;entryPerimeter=0;exitX=-0.046;exitY=0.077;exitDx=0;exitDy=0;exitPerimeter=0;fillColor=#1ba1e2;strokeColor=#006EAF;dashed=1;dashPattern=1 2;" parent="1" edge="1">
          <mxGeometry width="50" height="50" relative="1" as="geometry">
            <mxPoint x="512.3319999999999" y="376.30999999999995" as="sourcePoint" />
            <mxPoint x="464.12" y="376.43999999999994" as="targetPoint" />
          </mxGeometry>
        </mxCell>
        <mxCell id="JxfRfJocXZYldZ37d1hh-48" value="&lt;font&gt;Tele-Op&lt;/font&gt;" style="edgeLabel;html=1;align=center;verticalAlign=middle;resizable=0;points=[];fontSize=5;" parent="K37k-eg5Op9D9jUx-g8K-118" vertex="1" connectable="0">
          <mxGeometry x="-0.3414" y="1" relative="1" as="geometry">
            <mxPoint x="-13" y="-2" as="offset" />
          </mxGeometry>
        </mxCell>
        <mxCell id="K37k-eg5Op9D9jUx-g8K-78" value="" style="endArrow=none;html=1;rounded=0;fillColor=#a20025;strokeColor=light-dark(#6F0000, #ff0000);" parent="1" edge="1">
          <mxGeometry width="50" height="50" relative="1" as="geometry">
            <mxPoint x="236" y="451" as="sourcePoint" />
            <mxPoint x="236" y="444" as="targetPoint" />
          </mxGeometry>
        </mxCell>
        <mxCell id="K37k-eg5Op9D9jUx-g8K-79" value="" style="endArrow=none;html=1;rounded=0;fillColor=#a20025;strokeColor=light-dark(#6F0000, #ff0000);" parent="1" edge="1">
          <mxGeometry width="50" height="50" relative="1" as="geometry">
            <mxPoint x="243.96" y="451" as="sourcePoint" />
            <mxPoint x="243.96" y="441" as="targetPoint" />
          </mxGeometry>
        </mxCell>
        <mxCell id="K37k-eg5Op9D9jUx-g8K-80" value="" style="endArrow=none;html=1;rounded=0;fillColor=#a20025;strokeColor=light-dark(#6F0000, #ff0000);" parent="1" edge="1">
          <mxGeometry width="50" height="50" relative="1" as="geometry">
            <mxPoint x="252" y="451" as="sourcePoint" />
            <mxPoint x="252" y="441" as="targetPoint" />
          </mxGeometry>
        </mxCell>
        <mxCell id="K37k-eg5Op9D9jUx-g8K-81" value="" style="endArrow=none;html=1;rounded=0;fillColor=#a20025;strokeColor=light-dark(#6F0000, #ff0000);" parent="1" edge="1">
          <mxGeometry width="50" height="50" relative="1" as="geometry">
            <mxPoint x="260" y="451" as="sourcePoint" />
            <mxPoint x="260" y="441" as="targetPoint" />
          </mxGeometry>
        </mxCell>
        <mxCell id="K37k-eg5Op9D9jUx-g8K-31" style="edgeStyle=orthogonalEdgeStyle;rounded=0;orthogonalLoop=1;jettySize=auto;html=1;exitX=0.25;exitY=1;exitDx=0;exitDy=0;entryX=0.25;entryY=0;entryDx=0;entryDy=0;fillColor=#008a00;strokeColor=#005700;" parent="1" edge="1">
          <mxGeometry relative="1" as="geometry">
            <mxPoint x="401" y="383" as="sourcePoint" />
            <mxPoint x="401" y="403" as="targetPoint" />
          </mxGeometry>
        </mxCell>
        <mxCell id="JxfRfJocXZYldZ37d1hh-50" value="CMDs" style="edgeLabel;html=1;align=center;verticalAlign=middle;resizable=0;points=[];fontSize=5;" parent="K37k-eg5Op9D9jUx-g8K-31" vertex="1" connectable="0">
          <mxGeometry x="-0.2867" y="-1" relative="1" as="geometry">
            <mxPoint y="-1" as="offset" />
          </mxGeometry>
        </mxCell>
        <mxCell id="K37k-eg5Op9D9jUx-g8K-35" style="edgeStyle=orthogonalEdgeStyle;rounded=0;orthogonalLoop=1;jettySize=auto;html=1;exitX=0.646;exitY=-1.329;exitDx=0;exitDy=0;fillColor=#a20025;strokeColor=light-dark(#6F0000, #ff0000);entryX=-0.012;entryY=0.871;entryDx=0;entryDy=0;entryPerimeter=0;exitPerimeter=0;endArrow=classicThin;endFill=1;" parent="1" source="JxfRfJocXZYldZ37d1hh-44" target="K37k-eg5Op9D9jUx-g8K-18" edge="1">
          <mxGeometry relative="1" as="geometry">
            <mxPoint x="464" y="347" as="sourcePoint" />
            <mxPoint x="483" y="352.015873015873" as="targetPoint" />
            <Array as="points" />
          </mxGeometry>
        </mxCell>
        <mxCell id="K37k-eg5Op9D9jUx-g8K-37" value="" style="edgeStyle=orthogonalEdgeStyle;rounded=0;orthogonalLoop=1;jettySize=auto;html=1;exitX=0.25;exitY=0;exitDx=0;exitDy=0;entryX=0.25;entryY=1;entryDx=0;entryDy=0;fillColor=#a20025;strokeColor=light-dark(#6F0000, #ff0000);fontSize=6;" parent="1" edge="1">
          <mxGeometry relative="1" as="geometry">
            <mxPoint x="394.9999999999999" y="330" as="sourcePoint" />
            <mxPoint x="394.9999999999998" y="309" as="targetPoint" />
          </mxGeometry>
        </mxCell>
        <mxCell id="ktWFp_nz54c4ryIKUOW7-1" value="&lt;div&gt;&lt;font style=&quot;font-size: 8px;&quot;&gt;Companion Computer&lt;/font&gt;&lt;/div&gt;&lt;font style=&quot;font-size: 8px;&quot;&gt;(Raspberry Pi 5)&lt;/font&gt;" style="rounded=0;whiteSpace=wrap;html=1;strokeWidth=0.5;" parent="1" vertex="1">
          <mxGeometry x="344" y="330" width="120" height="53" as="geometry" />
        </mxCell>
        <mxCell id="K37k-eg5Op9D9jUx-g8K-32" style="edgeStyle=orthogonalEdgeStyle;rounded=0;orthogonalLoop=1;jettySize=auto;html=1;exitX=0.75;exitY=0;exitDx=0;exitDy=0;entryX=0.75;entryY=1;entryDx=0;entryDy=0;fillColor=#1ba1e2;strokeColor=#006EAF;" parent="1" edge="1">
          <mxGeometry relative="1" as="geometry">
            <mxPoint x="414.0000000000001" y="403" as="sourcePoint" />
            <mxPoint x="414" y="383" as="targetPoint" />
          </mxGeometry>
        </mxCell>
        <mxCell id="JxfRfJocXZYldZ37d1hh-51" value="IMU + GPS Data" style="edgeLabel;html=1;align=center;verticalAlign=middle;resizable=0;points=[];fontSize=5;" parent="K37k-eg5Op9D9jUx-g8K-32" vertex="1" connectable="0">
          <mxGeometry x="-0.2333" y="-1" relative="1" as="geometry">
            <mxPoint x="11" y="1" as="offset" />
          </mxGeometry>
        </mxCell>
        <mxCell id="K37k-eg5Op9D9jUx-g8K-41" style="edgeStyle=orthogonalEdgeStyle;rounded=0;orthogonalLoop=1;jettySize=auto;html=1;fillColor=#a20025;strokeColor=light-dark(#6F0000, #ff0000);entryX=0;entryY=0.75;entryDx=0;entryDy=0;exitX=0.576;exitY=0.226;exitDx=0;exitDy=0;exitPerimeter=0;" parent="1" edge="1">
          <mxGeometry relative="1" as="geometry">
            <Array as="points" />
            <mxPoint x="464.192" y="418.55999999999983" as="sourcePoint" />
            <mxPoint x="499" y="419.5" as="targetPoint" />
          </mxGeometry>
        </mxCell>
        <mxCell id="oa4Kjj4fSGmlapfvCtzm-1" value="&lt;font style=&quot;font-size: 8px;&quot;&gt;Flight Controller&lt;/font&gt;&lt;div&gt;&lt;font style=&quot;font-size: 8px;&quot;&gt;(Pixhawk 6C Mini)&lt;/font&gt;&lt;/div&gt;" style="rounded=0;whiteSpace=wrap;html=1;strokeWidth=0.5;" parent="1" vertex="1">
          <mxGeometry x="344" y="403" width="120" height="47" as="geometry" />
        </mxCell>
        <mxCell id="JxfRfJocXZYldZ37d1hh-23" style="edgeStyle=orthogonalEdgeStyle;rounded=0;orthogonalLoop=1;jettySize=auto;html=1;exitX=0.122;exitY=1.022;exitDx=0;exitDy=0;entryX=0.5;entryY=0;entryDx=0;entryDy=0;fillColor=#a20025;strokeColor=light-dark(#6F0000, #ff0000);exitPerimeter=0;" parent="1" target="JxfRfJocXZYldZ37d1hh-22" edge="1">
          <mxGeometry relative="1" as="geometry">
            <mxPoint x="244.83399999999995" y="350.59400000000005" as="sourcePoint" />
            <mxPoint x="244.83999999999992" y="373.99" as="targetPoint" />
          </mxGeometry>
        </mxCell>
        <mxCell id="BWbdEm4UrA8oamrmkrrZ-11" value="14.8V" style="edgeLabel;html=1;align=center;verticalAlign=middle;resizable=0;points=[];fontSize=5;" parent="JxfRfJocXZYldZ37d1hh-23" vertex="1" connectable="0">
          <mxGeometry x="0.0966" y="1" relative="1" as="geometry">
            <mxPoint x="-2" y="-2" as="offset" />
          </mxGeometry>
        </mxCell>
        <mxCell id="K37k-eg5Op9D9jUx-g8K-2" value="&lt;font style=&quot;font-size: 8px;&quot;&gt;Battery&lt;/font&gt;&lt;div&gt;&lt;font style=&quot;font-size: 8px;&quot;&gt;(4s 5000mAh)&lt;/font&gt;&lt;/div&gt;" style="rounded=0;whiteSpace=wrap;html=1;spacing=-7;verticalAlign=top;strokeWidth=0.5;" parent="1" vertex="1">
          <mxGeometry x="224" y="330" width="92" height="27" as="geometry" />
        </mxCell>
        <mxCell id="K37k-eg5Op9D9jUx-g8K-3" value="&lt;div style=&quot;line-height: 60%;&quot;&gt;&lt;font style=&quot;line-height: 60%; font-size: 5px;&quot;&gt;Power Module&lt;/font&gt;&lt;div&gt;&lt;span style=&quot;background-color: transparent; color: light-dark(rgb(0, 0, 0), rgb(255, 255, 255)); line-height: 60%;&quot;&gt;&lt;font style=&quot;font-size: 5px;&quot;&gt;(PM06 V2)&lt;/font&gt;&lt;/span&gt;&lt;/div&gt;&lt;/div&gt;" style="rounded=0;whiteSpace=wrap;html=1;verticalAlign=bottom;spacing=0;strokeWidth=0.5;" parent="1" vertex="1">
          <mxGeometry x="280" y="403" width="36" height="17" as="geometry" />
        </mxCell>
        <mxCell id="K37k-eg5Op9D9jUx-g8K-11" value="&lt;div style=&quot;line-height: 70%;&quot;&gt;&lt;font style=&quot;line-height: 70%; font-size: 8px;&quot;&gt;Motor&lt;/font&gt;&lt;div&gt;&lt;font style=&quot;line-height: 70%; font-size: 4px;&quot;&gt;(2212 920KV)&lt;/font&gt;&lt;/div&gt;&lt;/div&gt;" style="rounded=0;whiteSpace=wrap;html=1;textOpacity=70;verticalAlign=bottom;strokeWidth=0.5;" parent="1" vertex="1">
          <mxGeometry x="225" y="460" width="30" height="20" as="geometry" />
        </mxCell>
        <mxCell id="K37k-eg5Op9D9jUx-g8K-34" style="edgeStyle=orthogonalEdgeStyle;rounded=0;orthogonalLoop=1;jettySize=auto;html=1;fillColor=#008a00;strokeColor=#005700;exitX=0;exitY=0.109;exitDx=0;exitDy=0;exitPerimeter=0;entryX=1.005;entryY=0.059;entryDx=0;entryDy=0;entryPerimeter=0;endArrow=classicThin;endFill=1;" parent="1" source="K37k-eg5Op9D9jUx-g8K-18" target="ktWFp_nz54c4ryIKUOW7-1" edge="1">
          <mxGeometry relative="1" as="geometry">
            <mxPoint x="500" y="334" as="sourcePoint" />
            <mxPoint x="470" y="333" as="targetPoint" />
            <Array as="points" />
          </mxGeometry>
        </mxCell>
        <mxCell id="BWbdEm4UrA8oamrmkrrZ-3" value="IDs" style="edgeLabel;html=1;align=center;verticalAlign=middle;resizable=0;points=[];fontSize=5;" parent="K37k-eg5Op9D9jUx-g8K-34" vertex="1" connectable="0">
          <mxGeometry x="-0.0752" y="-1" relative="1" as="geometry">
            <mxPoint as="offset" />
          </mxGeometry>
        </mxCell>
        <mxCell id="K37k-eg5Op9D9jUx-g8K-18" value="&lt;font&gt;ML Chip&lt;/font&gt;&lt;div&gt;&lt;font&gt;(Pi AI Kit)&lt;/font&gt;&lt;/div&gt;" style="rounded=0;whiteSpace=wrap;html=1;fontSize=7;verticalAlign=bottom;spacing=4;strokeWidth=0.5;" parent="1" vertex="1">
          <mxGeometry x="499" y="330" width="57" height="25" as="geometry" />
        </mxCell>
        <mxCell id="K37k-eg5Op9D9jUx-g8K-38" value="&lt;font style=&quot;line-height: 80%; font-size: 5px;&quot;&gt;Image&lt;/font&gt;" style="edgeStyle=orthogonalEdgeStyle;rounded=0;orthogonalLoop=1;jettySize=auto;html=1;entryX=0.75;entryY=0;entryDx=0;entryDy=0;fillColor=#1ba1e2;strokeColor=#006EAF;fontSize=6;" parent="1" edge="1">
          <mxGeometry x="-0.0833" relative="1" as="geometry">
            <mxPoint x="408" y="310" as="sourcePoint" />
            <mxPoint x="408" y="330" as="targetPoint" />
            <mxPoint as="offset" />
          </mxGeometry>
        </mxCell>
        <mxCell id="K37k-eg5Op9D9jUx-g8K-19" value="&lt;font&gt;Camera&lt;/font&gt;&lt;div&gt;&lt;font&gt;(IMX219-83 Stereo)&lt;/font&gt;&lt;/div&gt;" style="rounded=0;whiteSpace=wrap;html=1;verticalAlign=top;spacing=-4;fontSize=8;strokeWidth=0.5;" parent="1" vertex="1">
          <mxGeometry x="344" y="288" width="120" height="21" as="geometry" />
        </mxCell>
        <mxCell id="K37k-eg5Op9D9jUx-g8K-40" style="edgeStyle=orthogonalEdgeStyle;rounded=0;orthogonalLoop=1;jettySize=auto;html=1;exitX=-0.011;exitY=0.199;exitDx=0;exitDy=0;fillColor=#1ba1e2;strokeColor=#006EAF;entryX=0.354;entryY=0.109;entryDx=0;entryDy=0;entryPerimeter=0;exitPerimeter=0;" parent="1" edge="1">
          <mxGeometry relative="1" as="geometry">
            <mxPoint x="465.12799999999993" y="409.24" as="targetPoint" />
            <Array as="points">
              <mxPoint x="484" y="409" />
            </Array>
            <mxPoint x="498.56000000000006" y="409.37799999999993" as="sourcePoint" />
          </mxGeometry>
        </mxCell>
        <mxCell id="JxfRfJocXZYldZ37d1hh-54" value="&lt;font&gt;GPS Data&lt;/font&gt;" style="edgeLabel;html=1;align=center;verticalAlign=middle;resizable=0;points=[];fontSize=5;" parent="K37k-eg5Op9D9jUx-g8K-40" vertex="1" connectable="0">
          <mxGeometry x="-0.0527" y="1" relative="1" as="geometry">
            <mxPoint x="2" y="-2" as="offset" />
          </mxGeometry>
        </mxCell>
        <mxCell id="K37k-eg5Op9D9jUx-g8K-20" value="&lt;font&gt;GPS&lt;/font&gt;&lt;div&gt;&lt;font&gt;(M10)&lt;/font&gt;&lt;/div&gt;" style="rounded=0;whiteSpace=wrap;html=1;fontSize=7;verticalAlign=bottom;spacing=3;strokeWidth=0.5;" parent="1" vertex="1">
          <mxGeometry x="499" y="403" width="40" height="22" as="geometry" />
        </mxCell>
        <mxCell id="K37k-eg5Op9D9jUx-g8K-85" value="" style="endArrow=classicThin;html=1;rounded=0;fillColor=#a20025;strokeColor=light-dark(#6F0000, #ff0000);endFill=1;strokeWidth=0.5;" parent="1" edge="1">
          <mxGeometry width="50" height="50" relative="1" as="geometry">
            <mxPoint x="271" y="451" as="sourcePoint" />
            <mxPoint x="271" y="460" as="targetPoint" />
          </mxGeometry>
        </mxCell>
        <mxCell id="K37k-eg5Op9D9jUx-g8K-86" value="" style="endArrow=classicThin;html=1;rounded=0;fillColor=#a20025;strokeColor=light-dark(#6F0000, #ff0000);endFill=1;strokeWidth=0.5;" parent="1" edge="1">
          <mxGeometry width="50" height="50" relative="1" as="geometry">
            <mxPoint x="302.87" y="451" as="sourcePoint" />
            <mxPoint x="303" y="460" as="targetPoint" />
          </mxGeometry>
        </mxCell>
        <mxCell id="K37k-eg5Op9D9jUx-g8K-93" value="" style="endArrow=classic;html=1;rounded=0;fillColor=#a20025;strokeColor=light-dark(#6F0000,#FF0000);fontSize=5;" parent="1" edge="1">
          <mxGeometry width="50" height="50" relative="1" as="geometry">
            <mxPoint x="485" y="452" as="sourcePoint" />
            <mxPoint x="555" y="452" as="targetPoint" />
          </mxGeometry>
        </mxCell>
        <mxCell id="K37k-eg5Op9D9jUx-g8K-94" value="" style="endArrow=classic;html=1;rounded=0;fillColor=#1ba1e2;strokeColor=#006EAF;fontSize=5;" parent="1" edge="1">
          <mxGeometry width="50" height="50" relative="1" as="geometry">
            <mxPoint x="485" y="463" as="sourcePoint" />
            <mxPoint x="555" y="463" as="targetPoint" />
          </mxGeometry>
        </mxCell>
        <mxCell id="K37k-eg5Op9D9jUx-g8K-95" value="" style="endArrow=classic;html=1;rounded=0;fillColor=#008a00;strokeColor=#005700;fontSize=5;" parent="1" edge="1">
          <mxGeometry width="50" height="50" relative="1" as="geometry">
            <mxPoint x="485" y="474" as="sourcePoint" />
            <mxPoint x="555" y="474" as="targetPoint" />
          </mxGeometry>
        </mxCell>
        <mxCell id="K37k-eg5Op9D9jUx-g8K-96" value="&lt;font&gt;Power&lt;/font&gt;" style="text;html=1;align=center;verticalAlign=middle;whiteSpace=wrap;rounded=0;fontSize=5;" parent="1" vertex="1">
          <mxGeometry x="487" y="444" width="60" height="8" as="geometry" />
        </mxCell>
        <mxCell id="K37k-eg5Op9D9jUx-g8K-97" value="&lt;font&gt;Raw Data&lt;/font&gt;" style="text;html=1;align=center;verticalAlign=middle;whiteSpace=wrap;rounded=0;fontSize=5;" parent="1" vertex="1">
          <mxGeometry x="488" y="455" width="60" height="7" as="geometry" />
        </mxCell>
        <mxCell id="K37k-eg5Op9D9jUx-g8K-98" value="&lt;font&gt;Processed Data&lt;/font&gt;" style="text;html=1;align=center;verticalAlign=middle;whiteSpace=wrap;rounded=0;fontSize=5;" parent="1" vertex="1">
          <mxGeometry x="487" y="466" width="60" height="7" as="geometry" />
        </mxCell>
        <mxCell id="K37k-eg5Op9D9jUx-g8K-117" value="&lt;font&gt;Controller&lt;/font&gt;&lt;div&gt;&lt;font&gt;(XBox)&lt;/font&gt;&lt;/div&gt;" style="rounded=0;whiteSpace=wrap;html=1;fontSize=7;spacing=3;verticalAlign=bottom;strokeWidth=0.5;" parent="1" vertex="1">
          <mxGeometry x="499" y="361" width="40" height="22" as="geometry" />
        </mxCell>
        <mxCell id="JxfRfJocXZYldZ37d1hh-7" value="&lt;font&gt;ESC&lt;/font&gt;&lt;div&gt;&lt;font&gt;(Tekko F4)&lt;/font&gt;&lt;/div&gt;" style="rounded=0;whiteSpace=wrap;html=1;verticalAlign=middle;fontSize=6;strokeWidth=0.5;" parent="1" vertex="1">
          <mxGeometry x="225" y="403" width="50" height="41" as="geometry" />
        </mxCell>
        <mxCell id="JxfRfJocXZYldZ37d1hh-11" value="" style="endArrow=none;html=1;rounded=0;fillColor=#a20025;strokeColor=light-dark(#6F0000, #ff0000);" parent="1" edge="1">
          <mxGeometry width="50" height="50" relative="1" as="geometry">
            <mxPoint x="236" y="451" as="sourcePoint" />
            <mxPoint x="335" y="451" as="targetPoint" />
          </mxGeometry>
        </mxCell>
        <mxCell id="JxfRfJocXZYldZ37d1hh-26" style="edgeStyle=orthogonalEdgeStyle;rounded=0;orthogonalLoop=1;jettySize=auto;html=1;exitX=1;exitY=0.5;exitDx=0;exitDy=0;entryX=0;entryY=0.5;entryDx=0;entryDy=0;strokeWidth=1;endArrow=classicThin;endFill=1;fillColor=#a20025;strokeColor=light-dark(#6F0000, #ff0000);" parent="1" source="JxfRfJocXZYldZ37d1hh-22" target="JxfRfJocXZYldZ37d1hh-25" edge="1">
          <mxGeometry relative="1" as="geometry">
            <mxPoint x="263.99" y="364.38" as="sourcePoint" />
            <mxPoint x="280.99" y="363.005" as="targetPoint" />
            <Array as="points">
              <mxPoint x="263" y="378" />
              <mxPoint x="263" y="378" />
            </Array>
          </mxGeometry>
        </mxCell>
        <mxCell id="JxfRfJocXZYldZ37d1hh-22" value="1-to-3 Splitter" style="rounded=0;whiteSpace=wrap;html=1;fontSize=6;strokeWidth=0.5;" parent="1" vertex="1">
          <mxGeometry x="224" y="373" width="40" height="10" as="geometry" />
        </mxCell>
        <mxCell id="JxfRfJocXZYldZ37d1hh-25" value="XT60 to USB-C" style="rounded=0;whiteSpace=wrap;html=1;fontSize=4.5;strokeWidth=0.5;" parent="1" vertex="1">
          <mxGeometry x="280" y="373" width="36" height="10" as="geometry" />
        </mxCell>
        <mxCell id="JxfRfJocXZYldZ37d1hh-37" value="&lt;div&gt;DRONE WIRING&lt;/div&gt;" style="text;html=1;align=center;verticalAlign=middle;resizable=0;points=[];autosize=1;strokeColor=none;fillColor=none;fontStyle=1;fontSize=12;fontColor=light-dark(#000000,#999900);" parent="1" vertex="1">
          <mxGeometry x="223" y="290" width="110" height="30" as="geometry" />
        </mxCell>
        <mxCell id="JxfRfJocXZYldZ37d1hh-44" value="&lt;font&gt;PCI Expr.&lt;/font&gt;" style="text;html=1;align=center;verticalAlign=middle;whiteSpace=wrap;rounded=0;rotation=90;fontColor=light-dark(#000000,#CC99FF);fontSize=4;" parent="1" vertex="1">
          <mxGeometry x="430" y="342" width="60" height="2" as="geometry" />
        </mxCell>
        <mxCell id="JxfRfJocXZYldZ37d1hh-46" value="&lt;font&gt;GPS1&lt;/font&gt;" style="text;html=1;align=center;verticalAlign=middle;whiteSpace=wrap;rounded=0;rotation=90;fontColor=light-dark(#000000,#CC99FF);fontSize=4;" parent="1" vertex="1">
          <mxGeometry x="430" y="409" width="60" height="8" as="geometry" />
        </mxCell>
        <mxCell id="JxfRfJocXZYldZ37d1hh-47" value="&lt;font&gt;USB&lt;/font&gt;&lt;div&gt;&lt;font&gt;&lt;br&gt;&lt;/font&gt;&lt;/div&gt;" style="text;html=1;align=center;verticalAlign=middle;whiteSpace=wrap;rounded=0;rotation=0;fontColor=light-dark(#000000,#CC99FF);fontSize=4;" parent="1" vertex="1">
          <mxGeometry x="454" y="375" width="10" height="8" as="geometry" />
        </mxCell>
        <mxCell id="JxfRfJocXZYldZ37d1hh-49" value="&lt;font&gt;PWM&lt;/font&gt;&lt;div&gt;&lt;font&gt;&lt;br&gt;&lt;/font&gt;&lt;/div&gt;&lt;div&gt;&lt;font&gt;Ground&lt;/font&gt;&lt;/div&gt;&lt;div&gt;&lt;br&gt;&lt;/div&gt;&lt;div&gt;TELEM1&lt;/div&gt;" style="text;html=1;align=left;verticalAlign=bottom;whiteSpace=wrap;rounded=0;rotation=0;fontColor=light-dark(#000000,#CC99FF);fontSize=3;spacing=1;" parent="1" vertex="1">
          <mxGeometry x="345" y="418" width="3.25" height="24.75" as="geometry" />
        </mxCell>
        <mxCell id="JxfRfJocXZYldZ37d1hh-55" value="&lt;div style=&quot;line-height: 70%;&quot;&gt;&lt;font style=&quot;line-height: 70%; font-size: 8px;&quot;&gt;Motor&lt;/font&gt;&lt;div&gt;&lt;font style=&quot;line-height: 70%; font-size: 4px;&quot;&gt;(2212 920KV)&lt;/font&gt;&lt;/div&gt;&lt;/div&gt;" style="rounded=0;whiteSpace=wrap;html=1;textOpacity=70;verticalAlign=bottom;strokeWidth=0.5;" parent="1" vertex="1">
          <mxGeometry x="257" y="460" width="30" height="20" as="geometry" />
        </mxCell>
        <mxCell id="JxfRfJocXZYldZ37d1hh-56" value="&lt;div style=&quot;line-height: 70%;&quot;&gt;&lt;font style=&quot;line-height: 70%; font-size: 8px;&quot;&gt;Motor&lt;/font&gt;&lt;div&gt;&lt;font style=&quot;line-height: 70%; font-size: 4px;&quot;&gt;(2212 920KV)&lt;/font&gt;&lt;/div&gt;&lt;/div&gt;" style="rounded=0;whiteSpace=wrap;html=1;textOpacity=70;verticalAlign=bottom;strokeWidth=0.5;" parent="1" vertex="1">
          <mxGeometry x="289" y="460" width="30" height="20" as="geometry" />
        </mxCell>
        <mxCell id="JxfRfJocXZYldZ37d1hh-57" value="" style="endArrow=classicThin;html=1;rounded=0;fillColor=#a20025;strokeColor=light-dark(#6F0000, #ff0000);endFill=1;strokeWidth=0.5;" parent="1" edge="1">
          <mxGeometry width="50" height="50" relative="1" as="geometry">
            <mxPoint x="334.87" y="451" as="sourcePoint" />
            <mxPoint x="335" y="460" as="targetPoint" />
          </mxGeometry>
        </mxCell>
        <mxCell id="JxfRfJocXZYldZ37d1hh-58" value="&lt;div style=&quot;line-height: 70%;&quot;&gt;&lt;font style=&quot;line-height: 70%; font-size: 8px;&quot;&gt;Motor&lt;/font&gt;&lt;div&gt;&lt;font style=&quot;line-height: 70%; font-size: 4px;&quot;&gt;(2212 920KV)&lt;/font&gt;&lt;/div&gt;&lt;/div&gt;" style="rounded=0;whiteSpace=wrap;html=1;textOpacity=70;verticalAlign=bottom;strokeWidth=0.5;" parent="1" vertex="1">
          <mxGeometry x="321" y="460" width="30" height="20" as="geometry" />
        </mxCell>
        <mxCell id="JxfRfJocXZYldZ37d1hh-65" value="Dual Ribbon" style="text;html=1;align=center;verticalAlign=middle;whiteSpace=wrap;rounded=0;fontSize=4;fontColor=light-dark(#000000,#CC99FF);" parent="1" vertex="1">
          <mxGeometry x="372" y="325" width="60" height="19" as="geometry" />
        </mxCell>
        <mxCell id="JxfRfJocXZYldZ37d1hh-66" value="&lt;font style=&quot;font-size: 3px;&quot;&gt;GND (6)&amp;nbsp; &amp;nbsp; &amp;nbsp;TX (8)&amp;nbsp; &amp;nbsp; &amp;nbsp;RX (10)&amp;nbsp;&lt;/font&gt;" style="text;html=1;align=center;verticalAlign=middle;whiteSpace=wrap;rounded=0;fontSize=4;fontColor=light-dark(#000000,#CC99FF);" parent="1" vertex="1">
          <mxGeometry x="372" y="369" width="60" height="19" as="geometry" />
        </mxCell>
        <mxCell id="JxfRfJocXZYldZ37d1hh-67" value="TELEM2" style="text;html=1;align=center;verticalAlign=middle;whiteSpace=wrap;rounded=0;fontSize=4;fontColor=light-dark(#000000,#CC99FF);" parent="1" vertex="1">
          <mxGeometry x="371" y="397" width="60" height="19" as="geometry" />
        </mxCell>
        <mxCell id="BWbdEm4UrA8oamrmkrrZ-8" value="M1-4&lt;sub&gt;out&lt;/sub&gt;" style="text;html=1;align=center;verticalAlign=middle;whiteSpace=wrap;rounded=0;rotation=0;fontSize=4;fontColor=light-dark(#000000,#CC99FF);" parent="1" vertex="1">
          <mxGeometry x="234" y="433" width="29" height="14" as="geometry" />
        </mxCell>
        <mxCell id="BWbdEm4UrA8oamrmkrrZ-19" value="&lt;font&gt;POWER&lt;/font&gt;" style="text;html=1;align=center;verticalAlign=middle;whiteSpace=wrap;rounded=0;rotation=0;fontColor=light-dark(#000000,#CC99FF);fontSize=4;" parent="1" vertex="1">
          <mxGeometry x="340.5" y="406.5" width="26" height="9" as="geometry" />
        </mxCell>
        <mxCell id="BWbdEm4UrA8oamrmkrrZ-21" value="&lt;font&gt;USB-C&lt;/font&gt;" style="text;html=1;align=center;verticalAlign=middle;whiteSpace=wrap;rounded=0;rotation=0;fontColor=light-dark(#000000,#CC99FF);fontSize=4;" parent="1" vertex="1">
          <mxGeometry x="338.75" y="373" width="26" height="9" as="geometry" />
        </mxCell>
        <mxCell id="BWbdEm4UrA8oamrmkrrZ-22" value="&lt;font&gt;Pi Hat M.2+&lt;/font&gt;" style="text;html=1;align=center;verticalAlign=middle;whiteSpace=wrap;rounded=0;rotation=-90;fontColor=light-dark(#000000,#CC99FF);fontSize=4;" parent="1" vertex="1">
          <mxGeometry x="488" y="341" width="30" height="2" as="geometry" />
        </mxCell>
        <mxCell id="BWbdEm4UrA8oamrmkrrZ-24" value="+&amp;nbsp; -" style="text;html=1;align=center;verticalAlign=middle;whiteSpace=wrap;rounded=0;rotation=0;fontSize=4;fontColor=light-dark(#000000,#CC99FF);" parent="1" vertex="1">
          <mxGeometry x="220" y="398.5" width="29" height="14" as="geometry" />
        </mxCell>
        <mxCell id="BWbdEm4UrA8oamrmkrrZ-31" value="&lt;font&gt;Ground&lt;/font&gt;" style="text;html=1;align=center;verticalAlign=middle;whiteSpace=wrap;rounded=0;fontSize=5;" parent="1" vertex="1">
          <mxGeometry x="487" y="434" width="60" height="8" as="geometry" />
        </mxCell>
        <mxCell id="BWbdEm4UrA8oamrmkrrZ-36" value="&lt;div&gt;&lt;span style=&quot;font-size: 2.5px;&quot;&gt;&lt;br&gt;&lt;/span&gt;&lt;div&gt;&lt;div&gt;&lt;font&gt;GND&lt;/font&gt;&lt;/div&gt;&lt;div&gt;&lt;br&gt;&lt;/div&gt;&lt;div&gt;TLM&lt;/div&gt;&lt;/div&gt;&lt;/div&gt;" style="text;html=1;align=right;verticalAlign=bottom;whiteSpace=wrap;rounded=0;rotation=0;fontColor=light-dark(#000000,#CC99FF);fontSize=3;spacing=1;" parent="1" vertex="1">
          <mxGeometry x="260" y="430" width="15.25" height="12.75" as="geometry" />
        </mxCell>
        <mxCell id="BWbdEm4UrA8oamrmkrrZ-41" value="Heat Sink" style="rounded=0;whiteSpace=wrap;html=1;fontSize=6;strokeWidth=0.5;" parent="1" vertex="1">
          <mxGeometry x="499" y="320" width="30" height="10" as="geometry" />
        </mxCell>
        <mxCell id="bMvYO2MA1TzW89IXiLI0-1" value="" style="endArrow=none;html=1;rounded=0;exitX=1;exitY=0.25;exitDx=0;exitDy=0;entryX=-0.395;entryY=0.624;entryDx=0;entryDy=0;entryPerimeter=0;fillColor=#fad7ac;strokeColor=#b46504;strokeWidth=0.5;" parent="1" source="BWbdEm4UrA8oamrmkrrZ-36" target="JxfRfJocXZYldZ37d1hh-49" edge="1">
          <mxGeometry width="50" height="50" relative="1" as="geometry">
            <mxPoint x="280" y="450" as="sourcePoint" />
            <mxPoint x="330" y="400" as="targetPoint" />
          </mxGeometry>
        </mxCell>
        <mxCell id="bMvYO2MA1TzW89IXiLI0-3" value="" style="endArrow=none;html=1;rounded=0;fillColor=#fad7ac;strokeColor=#b46504;" parent="1" edge="1">
          <mxGeometry width="50" height="50" relative="1" as="geometry">
            <mxPoint x="550" y="442" as="sourcePoint" />
            <mxPoint x="485" y="442" as="targetPoint" />
          </mxGeometry>
        </mxCell>
        <mxCell id="zngC2QcLv9OjM4QIASly-4" value="&lt;span style=&quot;font-size: 2.5px;&quot;&gt;&lt;br&gt;&lt;/span&gt;&lt;div&gt;&lt;div&gt;M1-4&lt;sub&gt;in&lt;/sub&gt;&lt;/div&gt;&lt;div&gt;&lt;br&gt;&lt;/div&gt;&lt;/div&gt;" style="text;html=1;align=right;verticalAlign=bottom;whiteSpace=wrap;rounded=0;rotation=0;fontColor=light-dark(#000000,#CC99FF);fontSize=3;spacing=1;" parent="1" vertex="1">
          <mxGeometry x="260" y="420" width="15.25" height="12.75" as="geometry" />
        </mxCell>
      </root>
    </mxGraphModel>
  </diagram>
</mxfile>
